<?xml version="1.0" encoding="UTF-8" standalone="no"?>
<svg
   xmlns:dc="http://purl.org/dc/elements/1.1/"
   xmlns:cc="http://creativecommons.org/ns#"
   xmlns:rdf="http://www.w3.org/1999/02/22-rdf-syntax-ns#"
   xmlns:svg="http://www.w3.org/2000/svg"
   xmlns="http://www.w3.org/2000/svg"
   xmlns:sodipodi="http://sodipodi.sourceforge.net/DTD/sodipodi-0.dtd"
   xmlns:inkscape="http://www.inkscape.org/namespaces/inkscape"
   width="1080"
   height="1080"
   viewBox="0 0 285.75001 285.75001"
   version="1.1"
   id="svg88193"
   inkscape:version="1.0.2-2 (e86c870879, 2021-01-15)"
   sodipodi:docname="logo exsol pesawat.svg">
  <defs
     id="defs88187">
    <clipPath
       clipPathUnits="userSpaceOnUse"
       id="clipPath888">
      <path
         style="fill:none;stroke:#000000;stroke-width:0.264583px;stroke-linecap:butt;stroke-linejoin:miter;stroke-opacity:1"
         d="m 85.863851,240.26123 18.716189,-8.33305 7.10198,-2.22807 4.73465,-0.97478 6.4057,-2.78509 -0.0696,-5.84868 -4.80428,-7.58937 -5.50054,5.36129 -2.2977,-4.59539 v -12.74178 l -24.369518,13.36842 -7.101975,16.01426 5.291667,6.68421 z"
         id="path890" />
    </clipPath>
  </defs>
  <sodipodi:namedview
     id="base"
     pagecolor="#ffffff"
     bordercolor="#666666"
     borderopacity="1.0"
     inkscape:pageopacity="0.0"
     inkscape:pageshadow="2"
     inkscape:zoom="0.47685185"
     inkscape:cx="479.18447"
     inkscape:cy="540"
     inkscape:document-units="mm"
     inkscape:current-layer="layer1"
     inkscape:document-rotation="0"
     showgrid="false"
     units="px"
     inkscape:window-width="1267"
     inkscape:window-height="729"
     inkscape:window-x="26"
     inkscape:window-y="0"
     inkscape:window-maximized="0" />
  <metadata
     id="metadata88190">
    <rdf:RDF>
      <cc:Work
         rdf:about="">
        <dc:format>image/svg+xml</dc:format>
        <dc:type
           rdf:resource="http://purl.org/dc/dcmitype/StillImage" />
        <dc:title></dc:title>
      </cc:Work>
    </rdf:RDF>
  </metadata>
  <g
     inkscape:label="Layer 1"
     inkscape:groupmode="layer"
     id="layer1">
    <g
       aria-label="exsol"
       id="g88766"
       style="font-size:43.8474px;line-height:1.25;font-family:Article;-inkscape-font-specification:Article;fill:#4d3a1c;fill-opacity:1;stroke-width:0.626395"
       transform="matrix(2.7062983,0,0,2.8778762,-149.73447,-532.3239)">
      <path
         d="m 65.818537,242.28869 c 1.841591,-0.39463 4.691672,-1.35927 5.349383,-3.37625 0.526169,-1.35927 -0.04385,-2.67469 -1.359269,-3.24471 -0.394627,-0.17539 -0.745406,-0.26308 -1.140033,-0.26308 -2.280064,0 -4.340892,2.89393 -4.735519,4.91091 -0.657711,3.02547 1.096185,4.95475 4.165503,5.56862 0.745406,0.13154 1.534659,0.21923 2.323912,0.21923 6.094789,0 12.452662,-4.34089 14.820422,-6.35787 0.482321,-0.39463 1.315422,-1.27158 0.745406,-1.92929 -0.17539,-0.21923 -0.35078,-0.26308 -0.570017,-0.26308 -0.482321,0 -1.00849,0.57002 -1.403116,0.87695 -1.490812,1.22772 -7.673295,6.00709 -13.461152,6.00709 -1.008491,0 -2.060828,-0.13154 -3.025471,-0.48232 -0.789253,-0.21924 -1.446964,-0.57002 -1.710049,-1.6662 z m 0.306932,-1.97313 c 0.131542,-1.49082 1.271575,-2.85009 2.36776,-3.02547 0.394626,-0.0877 0.789253,0 0.920795,0.39462 0.08769,0.21924 0.08769,0.57002 -0.04385,0.78925 -0.438474,1.05234 -2.236218,1.62236 -3.244708,1.8416 z"
         style="font-style:normal;font-variant:normal;font-weight:normal;font-stretch:normal;font-size:43.8474px;font-family:Holymore;-inkscape-font-specification:Holymore;fill:#4d3a1c;fill-opacity:1;stroke-width:0.626395"
         id="path88756" />
      <path
         d="m 87.78601,241.67483 c -0.131542,-0.35078 -0.263084,-0.61387 -0.350779,-0.87695 -0.350779,-0.87695 -0.701559,-1.35927 -1.096185,-2.23622 -0.306932,-0.74541 -0.745406,-1.09619 -1.096185,-1.09619 -0.526169,0 -0.833101,0.65772 -0.350779,1.88544 0.438474,1.31542 0.876948,2.19237 1.359269,3.46395 0.219237,0.70156 0.17539,1.27157 -0.219237,1.88544 -0.263084,0.35078 -0.482321,0.70155 -0.657711,1.05233 -0.920795,1.62236 -1.797743,3.28856 -2.280065,5.0863 -0.131542,0.39463 -0.219237,0.8331 -0.131542,1.22773 0.04385,0.21924 0.350779,0.43847 0.613864,0.52617 0.131542,0.0439 0.482321,-0.0877 0.570016,-0.21924 0.263084,-0.43847 0.394626,-0.87695 0.570016,-1.31542 0.613864,-1.49081 1.227727,-2.98162 1.929286,-4.47244 0.131542,-0.30693 0.438474,-0.61386 0.701558,-0.92079 1.446964,1.49081 2.630844,2.10467 4.165503,2.10467 0.613864,0 1.35927,-0.13154 2.19237,-0.30693 5.173993,-1.05234 10.041051,-4.1655 13.548851,-8.28716 0.17539,-0.17539 0.35078,-0.39462 0.43847,-0.57001 0.21924,-0.35078 0.21924,-0.74541 -0.13154,-0.96465 -0.17539,-0.13154 -0.57002,-0.17539 -0.78926,-0.0877 -3.42009,4.03396 -8.681781,8.06792 -14.60118,8.59409 -1.973133,0.13154 -2.850081,-0.39463 -3.595487,-2.54315 0.350779,-0.52617 0.745406,-1.14003 1.227727,-1.62235 1.271575,-1.35927 2.586997,-2.63085 3.902419,-3.94627 0.306932,-0.30693 0.701559,-0.52617 0.920796,-0.87695 0.131542,-0.17539 0.131542,-0.61386 0,-0.78925 -0.131543,-0.17539 -0.526169,-0.35078 -0.745406,-0.26308 -0.438474,0.13154 -0.920796,0.35077 -1.271575,0.65771 -1.096185,1.00849 -2.104675,2.10467 -3.157013,3.15701 -0.526169,0.52617 -0.876948,1.22773 -1.666201,1.7539 z"
         style="font-style:normal;font-variant:normal;font-weight:normal;font-stretch:normal;font-size:43.8474px;font-family:Holymore;-inkscape-font-specification:Holymore;fill:#4d3a1c;fill-opacity:1;stroke-width:0.626395"
         id="path88758" />
      <path
         d="m 107.12266,244.08643 c -0.35078,0.0438 -0.78926,0.13154 -1.18388,0.13154 -0.9208,0.0438 -1.00849,0.83311 -0.70156,1.40312 0.39462,0.65771 1.00849,1.05234 1.71005,1.05234 0.39462,0 0.7454,-0.0877 1.09618,-0.30693 0.61386,-0.35078 1.18388,-0.78926 1.92929,-0.9208 4.25319,-0.87695 7.67329,-3.28855 10.65491,-6.31402 0.35078,-0.35078 0.61387,-0.78926 0.30694,-1.18388 -0.0877,-0.17539 -0.26309,-0.21924 -0.43848,-0.21924 -0.52617,0 -1.22772,0.57002 -1.53466,0.87695 -2.19237,2.14852 -4.73552,3.81472 -7.62944,4.86706 -0.61387,0.21924 -1.22773,0.57001 -1.92929,0.30693 -0.39463,-1.18388 -0.8331,-2.36776 -1.22773,-3.55164 -0.0877,-0.35078 -0.13154,-0.70156 -0.0877,-1.05234 0.0439,-0.43847 0.26308,-0.78925 0.8331,-0.8331 0.13154,0.30693 0.26308,0.65771 0.48232,0.9208 0.17539,0.21924 0.39463,0.30693 0.61386,0.30693 0.26309,0 0.57002,-0.13154 0.70156,-0.43847 0.0877,-0.21924 0.17539,-0.48233 0.17539,-0.70156 0.0439,-1.27158 -0.8331,-2.10468 -1.88544,-2.10468 -0.35078,0 -0.7454,0.0877 -1.09618,0.26309 -1.31542,0.65771 -2.01698,2.28006 -1.57851,3.85857 0.17539,0.61386 0.43848,1.22773 0.65771,1.84159 0.21924,0.57001 0.48232,1.14003 0.13155,1.79774 z"
         style="font-style:normal;font-variant:normal;font-weight:normal;font-stretch:normal;font-size:43.8474px;font-family:Holymore;-inkscape-font-specification:Holymore;fill:#4d3a1c;fill-opacity:1;stroke-width:0.626395"
         id="path88760" />
      <path
         d="m 124.31075,240.27171 c 1.53466,0.52617 3.28856,0.78925 5.04246,0.78925 2.36775,0 4.82321,-0.52617 6.79634,-1.6662 0.48232,-0.26308 1.27158,-0.78925 0.87695,-1.44696 -0.13154,-0.26309 -0.39463,-0.35078 -0.61386,-0.35078 -0.43848,0 -0.96465,0.26308 -1.27158,0.43847 -1.35927,0.8331 -3.68318,1.35927 -5.96324,1.35927 -1.71005,0 -3.37625,-0.30693 -4.56013,-1.09618 -0.26309,-0.21924 -0.65772,-0.26309 -1.00849,-0.35078 -0.87695,-0.13155 -1.27158,0.21923 -1.31543,1.05233 -0.0438,0.48233 0.0439,0.96465 0,1.40312 -0.0877,1.71005 -0.7454,3.15701 -1.92928,4.29705 -0.26309,0.26308 -0.70156,0.39462 -1.05234,0.57001 -0.74541,-0.78925 -0.61386,-1.62235 -0.43847,-2.45545 0.26308,-1.35927 0.87694,-2.54315 1.79774,-3.59549 0.65771,-0.74541 0.70156,-1.27157 0.30693,-1.57851 -0.13154,-0.0877 -0.30693,-0.17539 -0.48232,-0.17539 -0.35078,0 -0.70156,0.21924 -1.14003,0.57002 -0.0438,0.0438 -0.0877,0.0877 -0.13154,0.13154 -1.49082,1.6662 -2.23622,3.63934 -2.28007,5.87555 0,0.39463 0.0877,0.83311 0.21924,1.18388 0.35078,1.18388 1.18388,1.8416 2.19237,1.8416 2.32391,0 3.99011,-3.11317 4.51628,-5.04246 0.13154,-0.52616 0.26308,-1.09618 0.43847,-1.75389 z"
         style="font-style:normal;font-variant:normal;font-weight:normal;font-stretch:normal;font-size:43.8474px;font-family:Holymore;-inkscape-font-specification:Holymore;fill:#4d3a1c;fill-opacity:1;stroke-width:0.626395"
         id="path88762" />
      <path
         d="m 137.15796,228.87138 c -0.70155,4.16551 -2.4993,14.64504 -1.27157,18.76669 2.10016,5.12306 7.34872,0.98134 9.95862,-1.82561 24.39206,-26.85359 -25.96821,-20.94244 -35.25218,-19.82752 -0.0105,0.0197 0.009,0.48791 0.97995,0.37242 6.50418,-0.77379 24.16794,-1.19877 30.77659,0.83738 10.42229,3.21116 4.01337,13.1848 3.73387,13.61566 -1.91378,2.95051 -3.83089,5.82992 -6.38216,7.17845 -0.35078,0.17539 -0.65771,0.30693 -0.92079,0.30693 -0.52617,0 -0.87695,-0.39462 -1.09619,-1.14003 -1.00849,-3.11317 0.17539,-8.24331 0.52617,-11.48802 1.49081,-1.88544 5.52477,-8.15562 6.13864,-14.16271 0.0877,-1.00849 -0.0877,-1.92928 -1.09619,-2.45545 -0.30693,-0.17539 -0.61386,-0.26309 -0.92079,-0.26309 -3.06932,0 -4.86706,8.28716 -5.174,10.0849 z m 5.13015,-7.19097 c 0.8331,0.70156 -1.92929,6.92789 -3.20086,9.2518 0.0438,-1.09618 1.44696,-9.38334 2.93778,-9.38334 0.0877,0 0.17539,0.0439 0.26308,0.13154 z"
         style="font-style:normal;font-variant:normal;font-weight:normal;font-stretch:normal;font-size:43.8474px;font-family:Holymore;-inkscape-font-specification:Holymore;fill:#4d3a1c;fill-opacity:1;stroke-width:0.626395"
         id="path88764"
         sodipodi:nodetypes="ccccssscsccccscccscc" />
    </g>
    <path
       style="fill:#4d3a1c;fill-opacity:1;stroke:none;stroke-width:0.0881944;stroke-opacity:1"
       d="m 121.70675,228.50878 c 0.075,-0.16088 0.0568,-0.29359 -0.0703,-0.51376 -0.33549,-0.58109 0.77703,-1.16148 -12.80804,6.68186 l -12.159849,7.02049 -0.04211,0.29264 c -0.05312,0.36918 0.03871,0.52823 0.384981,0.66681 l 0.274491,0.10985 12.159847,-7.02049 c 10.882,-6.28273 12.17048,-7.04329 12.26096,-7.2374 z m -25.463813,14.62437 c 0.137944,-0.58758 -0.438361,-0.93695 -1.00547,-0.60952 -0.438379,0.25309 -0.544228,0.54045 -0.333516,0.90542 0.212155,0.36746 0.512845,0.41677 0.96158,0.1577 0.228833,-0.13212 0.330667,-0.25451 0.377406,-0.4536 z m 22.780233,-16.6836 c 0.10509,-0.16725 0.19779,-0.42302 0.206,-0.56837 0.008,-0.14535 -0.22993,-1.6486 -0.52921,-3.34056 -0.47971,-2.71199 -0.57343,-3.11757 -0.79147,-3.42482 -0.27733,-0.39081 -0.61265,-0.56898 -1.14937,-0.61072 -0.30683,-0.0239 -0.43422,0.0187 -0.81847,0.27322 l -0.45508,0.30149 -0.78075,1.86316 c -0.69468,1.65779 -0.81731,1.88915 -1.11242,2.0988 -0.32807,0.23306 -0.36977,0.23342 -3.83334,0.0326 -1.92591,-0.11165 -3.51932,-0.2323 -3.54091,-0.26811 -0.0216,-0.0358 0.5852,-2.46714 0.7101,-5.29837 0.12493,-2.83123 0.21737,-5.33618 0.20541,-5.56655 -0.0277,-0.53377 -0.43947,-1.29065 -0.84762,-1.55801 -0.35473,-0.23238 -0.97202,-0.42107 -1.32938,-0.40637 -0.83826,0.0345 -1.8223,0.69098 -2.27693,1.51904 -0.14413,0.26251 -1.51366,2.76847 -3.043393,5.56879 -1.529738,2.80032 -3.386317,5.27301 -3.487478,5.39028 -0.157722,0.18284 -0.467837,0.28218 -2.176389,0.69715 -4.441296,1.07871 -6.007744,1.65555 -7.055331,2.59811 -1.355107,1.21926 -1.688008,3.57083 -0.713256,5.03834 0.568664,0.85614 1.576472,1.43261 2.573426,1.47201 0.568122,0.0224 10.516944,-1.75388 10.827592,-1.93323 0.438029,-0.2529 0.35055,-0.96996 -0.130975,-1.07358 -0.112691,-0.0243 -2.512054,0.36415 -5.331919,0.86311 -3.312084,0.58605 -5.263841,0.88877 -5.513513,0.85515 -0.484869,-0.0653 -1.226318,-0.53655 -1.44781,-0.92018 -0.435795,-0.75482 -0.343112,-2.09448 0.200848,-2.90307 0.718541,-1.06811 2.207726,-1.66075 7.117741,-2.83256 1.651235,-0.39409 1.914286,-0.4798 2.257357,-0.73555 0.213577,-0.15921 0.461016,-0.4029 0.549863,-0.54153 0.08885,-0.13863 2.015555,-2.77395 3.643317,-5.75168 1.75337,-3.20751 3.06547,-5.51054 3.21939,-5.65077 0.55641,-0.50693 1.27237,-0.51138 1.56201,-0.01 0.19374,0.33557 0.19792,0.0384 -0.0927,6.59329 -0.24245,5.4676 -0.75587,5.74058 -0.25278,5.83683 0.39505,0.0756 7.6836,0.46569 7.98262,0.42726 0.47068,-0.0605 1.26196,-0.55337 1.53907,-0.95865 0.12874,-0.18828 0.52034,-1.0371 0.87023,-1.88628 0.34989,-0.84918 0.69292,-1.62641 0.76229,-1.72718 0.30197,-0.43869 0.38226,-0.20494 0.86029,2.50461 0.54741,3.10273 0.58829,3.40702 0.46713,3.47696 -0.0509,0.0294 -2.88768,0.54445 -6.30394,1.14456 -3.41626,0.6001 -6.27818,1.12967 -6.35981,1.1768 -0.0816,0.0471 -0.19393,0.1833 -0.24954,0.3026 -0.14343,0.30772 0.14886,0.81103 0.48048,0.82736 0.12971,0.006 3.04052,-0.48161 6.46845,-1.08442 6.66984,-1.17293 6.72849,-1.18784 7.12021,-1.81128 z m -14.67231,2.7927 c 0.10479,-0.55684 -0.20595,-0.84625 -0.82888,-0.772 -0.55808,0.0665 -0.86641,0.24553 -0.94811,0.55043 -0.0801,0.299 0.11786,0.66081 0.39411,0.72026 0.56077,0.12067 1.31769,-0.15229 1.38288,-0.49869 z"
       id="path88768"
       clip-path="url(#clipPath888)"
       sodipodi:nodetypes="ssscsscssssssssccsssscsssssssssssssscssssssssssscssssssssssscsccsssss"
       transform="matrix(2.8510974,0.1830641,-0.25120442,2.697582,-107.91605,-515.6906)" />
  </g>
</svg>
